# xmcd
# 
# Track frame offsets:
#     187
#     30762
#     49412
#     80962
#     98412
#     118897
#     138100
#     159477
#     177790
#     191862
#     201487
#     226065
# 
# Disc length: 3271
# 
# Revision: 0
# Processed by: cddbd v1.5.2PL0 Copyright (c) Steve Scherf et al.
# Submitted via: fre:ac v1.1beta2
# 
DISCID=9c0cc50c
DTITLE=Phil Upchurch - Whatever Happened to the Blues
DYEAR=1992
DGENRE=Fusion
TTITLE0=6 to 4
TTITLE1=The Tide Keeps Lifting Me
TTITLE2=Angel Eyes
TTITLE3=Blues March
TTITLE4=Love and Peace
TTITLE5=All Blues
TTITLE6=Whatever Happened to the Blues
TTITLE7=I Don't Want Nobody to Give Me Nothing
TTITLE8=I'm Going Down Slow
TTITLE9=Nice to Have You Around
TTITLE10=Fade to Black Tie
TTITLE11=Sweet Woman Blues
EXTD=(P) and (C) 1992
EXTT0=
EXTT1=
EXTT2=
EXTT3=
EXTT4=
EXTT5=
EXTT6=
EXTT7=
EXTT8=
EXTT9=
EXTT10=
EXTT11=
PLAYORDER=
